<svg width="200" height="200" xmlns="http://www.w3.org/2000/svg">
    <defs>
        <linearGradient id="cloudGrad" x1="0%" y1="0%" x2="100%" y2="100%">
            <stop offset="0%" style="stop-color:#4A90E2;stop-opacity:1"/>
            <stop offset="100%" style="stop-color:#5CA0F2;stop-opacity:1"/>
        </linearGradient>
    </defs>

    <!-- 云 -->
    <path d="M50 80
           A30 30 0 0 1 80 50
           A40 40 0 0 1 150 70
           A30 30 0 0 1 180 100
           A30 30 0 0 1 150 130
           L50 130
           A30 30 0 0 1 50 80"
          fill="url(#cloudGrad)"/>

    <!-- 存储图标 -->
    <rect x="70" y="90" width="60" height="30" rx="5" ry="5" fill="white"/>
    <rect x="75" y="100" width="50" height="5" fill="#4A90E2"/>
    <rect x="75" y="110" width="40" height="5" fill="#4A90E2"/>

    <!-- 上传箭头 -->
    <path d="M95 85 L105 85 L105 70 L115 70 L100 55 L85 70 L95 70 Z" fill="white"/>


</svg>
